<svg xmlns="http://www.w3.org/2000/svg" xmlns:xlink="http://www.w3.org/1999/xlink" width="18" height="18" viewBox="0 0 18 18">
    <defs>
        <path id="pnwc755qoa" d="M0 0.023L13.067 0.023 13.067 13.016 0 13.016z"/>
    </defs>
    <g fill="none" fill-rule="evenodd">
        <path d="M0 0L18 0 18 18 0 18z"/>
        <g transform="translate(2.455 2.455)">
            <mask id="dfxd82a9gb" fill="#fff">
                <use xlink:href="#pnwc755qoa"/>
            </mask>
            <path fill="#454545" d="M6.533.023C2.926.023 0 3.005 0 6.683c0 2.944 1.872 5.44 4.468 6.322.326.061.446-.145.446-.32 0-.16-.006-.684-.009-1.241-1.817.403-2.2-.786-2.2-.786-.298-.77-.726-.975-.726-.975-.593-.413.045-.405.045-.405.656.047 1.001.687 1.001.687.583 1.018 1.528.724 1.901.554.059-.43.228-.725.415-.891-1.451-.168-2.977-.74-2.977-3.292 0-.727.256-1.322.674-1.788-.068-.168-.292-.845.063-1.763 0 0 .549-.179 1.797.683.521-.148 1.08-.222 1.635-.224.556.002 1.115.076 1.637.224 1.247-.862 1.795-.683 1.795-.683.355.918.132 1.595.064 1.763.419.466.672 1.06.672 1.788 0 2.558-1.528 3.122-2.983 3.287.234.206.443.612.443 1.233 0 .891-.007 1.609-.007 1.828 0 .178.117.385.448.32 2.595-.882 4.465-3.378 4.465-6.32 0-3.68-2.925-6.661-6.534-6.661" mask="url(#dfxd82a9gb)"/>
            <path fill="#1A1515" d="M2.54 9.858c-.015.033-.066.043-.112.02-.048-.021-.074-.066-.059-.1.014-.033.065-.042.113-.02.047.022.074.067.058.1"/>
            <path fill="#454545" d="M2.53 9.902c-.03.03-.092.016-.133-.03-.043-.047-.05-.108-.019-.138.032-.029.091-.015.134.03.043.047.051.108.019.138"/>
            <path fill="#454545" d="M2.803 10.208c-.08.048-.21.003-.29-.099-.078-.1-.078-.222.003-.27.08-.05.207-.006.289.095.079.103.079.224-.002.274M3.239 10.596c-.06.067-.188.05-.281-.043-.096-.09-.122-.218-.062-.285.06-.068.189-.049.283.042.094.09.123.219.06.286M3.678 10.923c-.024.103-.133.15-.242.106-.11-.045-.181-.165-.16-.27.023-.103.133-.152.243-.105.11.045.181.165.159.27M4.09 11.043c.004.055-.088.1-.201.1-.114.003-.206-.041-.207-.095 0-.055.09-.1.203-.101.113-.002.206.042.206.096M4.498 10.611c.014.053-.065.108-.178.123-.11.014-.213-.02-.228-.072-.013-.054.067-.109.178-.123.113-.014.214.018.228.072"/>
        </g>
    </g>
</svg>
