<svg xmlns="http://www.w3.org/2000/svg" xmlns:xlink="http://www.w3.org/1999/xlink" width="44" height="44" viewBox="0 0 44 44">
    <defs>
        <path id="n49tnv0wva" d="M0 0L20.789 0 20.789 17 0 17z"/>
    </defs>
    <g fill="none" fill-rule="evenodd">
        <path d="M0 0L44 0 44 44 0 44z"/>
        <g>
            <path stroke="#222" stroke-width="2" d="M32 8.848C32 3.96 26.627 0 20 0S8 3.961 8 8.848c0 4.886 5.373 8.848 12 8.848.896 0 1.767-.075 2.607-.213.066-.01.133.004.188.042l3.523 2.428c.189.13.442-.028.406-.254l-.485-3.086c-.018-.114.043-.225.148-.274C29.76 14.773 32 12.003 32 8.848z" transform="translate(6 9)"/>
            <g transform="translate(6 9) translate(0 8)">
                <mask id="sr5cg8le9b" fill="#fff">
                    <use xlink:href="#n49tnv0wva"/>
                </mask>
                <path fill="#222" d="M10.395 0C4.654 0 0 3.257 0 7.276c0 2.539 1.86 4.773 4.676 6.074.146.068.226.22.189.37l-.714 2.875c-.07.285.258.509.52.355l4.118-2.418c.065-.038.14-.054.215-.047.455.043.919.066 1.39.066 5.741 0 10.395-3.257 10.395-7.275C20.79 3.257 16.135 0 10.395 0" mask="url(#sr5cg8le9b)"/>
            </g>
        </g>
    </g>
</svg>
