<svg xmlns="http://www.w3.org/2000/svg" width="31" height="22" viewBox="0 0 31 22">
    <path fill="#222" fill-rule="evenodd" d="M15.824 0c1.704.008 9.634.071 11.788.657 1.333.361 2.384 1.426 2.74 2.778.601 2.272.645 6.83.648 7.486v.158c-.003.655-.047 5.214-.648 7.485-.356 1.353-1.407 2.418-2.74 2.78C25.194 22 15.5 22 15.5 22c-.35 0-9.738-.012-12.112-.657-1.334-.361-2.384-1.426-2.74-2.779-.57-2.151-.639-6.356-.647-7.35v-.428c.008-.994.077-5.199.646-7.35.357-1.353 1.407-2.418 2.741-2.78C5.542.072 13.471.009 15.176.002zM12.4 6.286v9.43L20.454 11 12.4 6.285z"/>
</svg>
