<svg xmlns="http://www.w3.org/2000/svg" width="18" height="18" viewBox="0 0 18 18">
    <g fill="none" fill-rule="evenodd">
        <path d="M0 0L18 0 18 18 0 18z"/>
        <path fill="#454545" d="M9.29 4.501c.99.006 4.229.045 5.144.292.599.161 1.07.637 1.23 1.24.256.963.286 2.845.29 3.283v.186c-.004.438-.034 2.32-.29 3.283-.16.603-.631 1.079-1.23 1.24-.949.257-4.398.289-5.245.293h-.378c-.847-.004-4.296-.036-5.245-.293-.599-.161-1.07-.637-1.23-1.24-.244-.919-.283-2.676-.29-3.215v-.322c.007-.539.046-2.296.29-3.215.16-.603.631-1.079 1.23-1.24.915-.247 4.154-.286 5.144-.292zM7.772 7.364v4.09l3.682-2.045-3.682-2.045z"/>
    </g>
</svg>
